<?xml version="1.0" encoding="UTF-8" standalone="no"?>
<svg
   xmlns="http://www.w3.org/2000/svg"
   width="133.23735mm"
   height="30.751291mm"
   viewBox="0 0 133.23735 30.751291"
   version="1.1"
   id="svg3859">
  <defs
     id="defs3853">
    <clipPath
       clipPathUnits="userSpaceOnUse"
       id="clipPath3747">
      <path
         d="M 0,595.276 H 841.89 V 0 H 0 Z"
         id="path3745" />
    </clipPath>
  </defs>
  <g
     id="layer1"
     transform="translate(-42.238463,-166.71959)">
    <g
       id="g3731"
       transform="matrix(0.35277777,0,0,-0.35277777,82.902813,176.25211)">
      <path
         d="m 0,0 c 3.488,-1.928 6.224,-4.65 8.21,-8.167 1.984,-3.517 2.977,-7.571 2.977,-12.166 0,-4.594 -0.993,-8.663 -2.977,-12.208 -1.986,-3.546 -4.722,-6.282 -8.21,-8.21 -3.488,-1.929 -7.444,-2.893 -11.868,-2.893 -6.126,0 -10.975,2.042 -14.548,6.127 V -59.553 H -37.051 V 2.382 h 10.125 v -5.955 c 1.757,2.155 3.926,3.771 6.508,4.85 2.58,1.076 5.43,1.616 8.55,1.616 C -7.444,2.893 -3.488,1.928 0,0 m -3.403,-30.627 c 2.523,2.608 3.786,6.042 3.786,10.294 0,4.254 -1.263,7.685 -3.786,10.294 -2.524,2.608 -5.743,3.914 -9.656,3.914 -2.553,0 -4.849,-0.583 -6.891,-1.744 -2.042,-1.163 -3.659,-2.822 -4.85,-4.977 -1.191,-2.156 -1.786,-4.651 -1.786,-7.487 0,-2.837 0.595,-5.331 1.786,-7.486 1.191,-2.157 2.808,-3.816 4.85,-4.978 2.042,-1.162 4.338,-1.743 6.891,-1.743 3.913,0 7.132,1.304 9.656,3.913"
         style="fill:#ffffff;fill-opacity:1;fill-rule:nonzero;stroke:none"
         id="path3733" />
    </g>
    <g
       id="g3735"
       transform="matrix(0.35277777,0,0,-0.35277777,99.454791,190.56822)">
      <path
         d="m 0,0 c -1.248,-1.021 -2.765,-1.786 -4.552,-2.298 -1.786,-0.509 -3.672,-0.765 -5.657,-0.765 -4.992,0 -8.848,1.303 -11.57,3.914 -2.723,2.608 -4.084,6.409 -4.084,11.401 v 21.864 h -7.487 v 8.508 h 7.487 v 10.378 h 10.634 V 42.624 h 12.166 v -8.508 h -12.166 v -21.61 c 0,-2.211 0.539,-3.901 1.617,-5.063 1.077,-1.162 2.637,-1.743 4.679,-1.743 2.382,0 4.367,0.624 5.955,1.872 z"
         style="fill:#ffffff;fill-opacity:1;fill-rule:nonzero;stroke:none"
         id="path3737" />
    </g>
    <path
       d="m 101.94576,175.41169 h 3.75179 v 16.02669 h -3.75179 z"
       style="fill:#ffffff;fill-opacity:1;fill-rule:nonzero;stroke:none;stroke-width:0.35277775"
       id="path3739" />
    <g
       transform="matrix(0.35277777,0,0,-0.35277777,-40.311526,286.72366)"
       id="g3741">
      <g
         id="g3743"
         clip-path="url(#clipPath3747)">
        <g
           id="g3749"
           transform="translate(495.3848,311.0647)">
          <path
             d="M 0,0 C 3.346,-3.319 5.019,-8.295 5.019,-14.932 V -40.964 H -5.615 v 24.671 c 0,3.97 -0.88,6.962 -2.637,8.976 -1.759,2.012 -4.283,3.021 -7.572,3.021 -3.573,0 -6.438,-1.179 -8.593,-3.531 -2.156,-2.355 -3.233,-5.715 -3.233,-10.082 v -23.055 h -10.634 v 24.671 c 0,3.97 -0.88,6.962 -2.638,8.976 -1.758,2.012 -4.282,3.021 -7.571,3.021 -3.631,0 -6.509,-1.164 -8.636,-3.488 -2.127,-2.327 -3.19,-5.702 -3.19,-10.125 v -23.055 h -10.635 v 45.43 h 10.124 v -5.785 c 1.703,2.042 3.829,3.6 6.382,4.679 2.551,1.077 5.386,1.617 8.507,1.617 3.403,0 6.423,-0.639 9.06,-1.914 2.638,-1.277 4.722,-3.164 6.253,-5.659 1.873,2.382 4.282,4.24 7.232,5.573 2.949,1.332 6.209,2 9.784,2 C -7.884,4.977 -3.347,3.317 0,0"
             style="fill:#ffffff;fill-opacity:1;fill-rule:nonzero;stroke:none"
             id="path3751" />
        </g>
      </g>
    </g>
    <path
       d="m 139.82139,175.41169 h 3.75179 v 16.02669 h -3.75179 z"
       style="fill:#ffffff;fill-opacity:1;fill-rule:nonzero;stroke:none;stroke-width:0.35277775"
       id="path3753" />
    <g
       id="g3763"
       transform="matrix(0.35277777,0,0,-0.35277777,152.63657,174.57126)">
      <path
         d="M 0,0 V -2.722 H 12.506 V -11.23 H 0.34 v -36.582 h -10.634 v 36.582 h -7.487 v 8.508 h 7.487 v 2.893 c 0,4.876 1.417,8.719 4.254,11.527 2.835,2.808 6.834,4.211 11.995,4.211 4.084,0 7.288,-0.822 9.614,-2.467 L 12.591,5.445 C 10.775,6.692 8.818,7.316 6.721,7.316 2.24,7.316 0,4.877 0,0"
         style="fill:#ffffff;fill-opacity:1;fill-rule:nonzero;stroke:none"
         id="path3765" />
    </g>
    <g
       id="g3767"
       transform="matrix(0.35277777,0,0,-0.35277777,175.47582,175.41169)">
      <path
         d="m 0,0 -21.269,-49.089 c -1.986,-4.934 -4.397,-8.408 -7.232,-10.421 -2.837,-2.013 -6.267,-3.02 -10.294,-3.02 -2.268,0 -4.509,0.369 -6.721,1.106 -2.212,0.736 -4.027,1.758 -5.445,3.062 l 4.254,7.827 c 1.021,-0.964 2.227,-1.729 3.616,-2.297 1.39,-0.567 2.793,-0.851 4.211,-0.851 1.872,0 3.417,0.482 4.638,1.446 1.219,0.966 2.34,2.582 3.359,4.85 l 0.767,1.786 L -49.939,0 H -38.88 L -24.587,-33.605 -10.209,0 Z"
         style="fill:#ffffff;fill-opacity:1;fill-rule:nonzero;stroke:none"
         id="path3769" />
    </g>
    <g
       id="g3771"
       transform="matrix(0.35277777,0,0,-0.35277777,50.442107,177.73402)">
      <path
         d="m 0,0 c -3.393,-5.723 -1.689,-13.322 3.828,-17.041 6.034,-4.068 14.179,-2.27 17.965,3.863 2.702,4.378 2.431,9.75 -0.251,13.767 L 37.725,25.664 28.723,31.222 12.54,6.146 C 7.676,6.752 2.675,4.512 0,0"
         style="fill:#00bbff;fill-opacity:1;fill-rule:nonzero;stroke:none"
         id="path3773" />
    </g>
    <g
       id="g3775"
       transform="matrix(0.35277777,0,0,-0.35277777,63.577892,172.1347)">
      <path
         d="m 0,0 -6.622,-10.191 c 4.477,-7.313 4.667,-16.858 -0.308,-24.515 -6.895,-10.611 -21.138,-13.635 -31.75,-6.739 -10.611,6.895 -13.634,21.138 -6.738,31.749 4.974,7.656 13.774,11.36 22.275,10.241 l 6.622,10.19 C -30.69,14.88 -46.509,9.502 -54.957,-3.498 c -9.337,-14.37 -6.513,-33.192 5.885,-44.278 l -4.882,-7.37 9.002,-5.558 4.752,7.173 c 15.159,-6.798 33.479,-1.729 42.808,12.628 8.447,13 6.935,29.64 -2.608,40.903"
         style="fill:#00bbff;fill-opacity:1;fill-rule:nonzero;stroke:none"
         id="path3777" />
    </g>
    <g
       id="g3779"
       transform="matrix(0.35277777,0,0,-0.35277777,102.12596,172.12524)">
      <path
         d="m 0,0 c -1.306,1.219 -1.957,2.736 -1.957,4.553 0,1.814 0.651,3.331 1.957,4.551 1.304,1.218 2.92,1.828 4.849,1.828 1.927,0 3.544,-0.582 4.849,-1.743 1.304,-1.164 1.957,-2.625 1.957,-4.382 0,-1.871 -0.638,-3.445 -1.914,-4.722 C 8.465,-1.191 6.833,-1.829 4.849,-1.829 2.92,-1.829 1.304,-1.22 0,0"
         style="fill:#00bbff;fill-opacity:1;fill-rule:nonzero;stroke:none"
         id="path3781" />
    </g>
    <g
       id="g3783"
       transform="matrix(0.35277777,0,0,-0.35277777,140.00166,172.12524)">
      <path
         d="m 0,0 c -1.307,1.219 -1.957,2.736 -1.957,4.553 0,1.814 0.65,3.331 1.957,4.551 1.304,1.218 2.92,1.828 4.849,1.828 1.926,0 3.544,-0.582 4.849,-1.743 C 11.002,8.025 11.654,6.564 11.654,4.807 11.654,2.936 11.017,1.362 9.74,0.085 8.465,-1.191 6.833,-1.829 4.849,-1.829 2.92,-1.829 1.304,-1.22 0,0"
         style="fill:#00bbff;fill-opacity:1;fill-rule:nonzero;stroke:none"
         id="path3785" />
    </g>
  </g>
</svg>
